<svg width="28" height="28" viewBox="0 0 28 28" fill="none" xmlns="http://www.w3.org/2000/svg">
<path d="M14 0C6.26875 0 0 6.26875 0 14C0 21.7313 6.26875 28 14 28C21.7313 28 28 21.7313 28 14C28 6.26875 21.7313 0 14 0ZM13 7.25C13 7.1125 13.1125 7 13.25 7H14.75C14.8875 7 15 7.1125 15 7.25V15.75C15 15.8875 14.8875 16 14.75 16H13.25C13.1125 16 13 15.8875 13 15.75V7.25ZM14 21C13.6075 20.992 13.2337 20.8304 12.959 20.55C12.6842 20.2696 12.5303 19.8926 12.5303 19.5C12.5303 19.1074 12.6842 18.7304 12.959 18.45C13.2337 18.1696 13.6075 18.008 14 18C14.3925 18.008 14.7663 18.1696 15.041 18.45C15.3158 18.7304 15.4697 19.1074 15.4697 19.5C15.4697 19.8926 15.3158 20.2696 15.041 20.55C14.7663 20.8304 14.3925 20.992 14 21Z" fill="#6B4EFF"/>
</svg>
